<?xml version="1.0" encoding="UTF-8"?>
<svg id="Layer_2" data-name="Layer 2" xmlns="http://www.w3.org/2000/svg" xmlns:xlink="http://www.w3.org/1999/xlink" viewBox="0 0 367.11 86.41">
  <defs>
    <style>
      .cls-1 {
        fill: url(#linear-gradient);
      }

      .cls-1, .cls-2, .cls-3, .cls-4, .cls-5, .cls-6, .cls-7, .cls-8 {
        stroke-width: 0px;
      }

      .cls-2 {
        fill: #1b1464;
      }

      .cls-3 {
        fill: gray;
      }

      .cls-4 {
        fill: url(#linear-gradient-2);
      }

      .cls-5 {
        fill: url(#radial-gradient-2);
      }

      .cls-6 {
        fill: url(#radial-gradient);
      }

      .cls-7 {
        fill: url(#radial-gradient-3);
      }

      .cls-8 {
        fill: url(#radial-gradient-4);
      }
    </style>
    <linearGradient id="linear-gradient" x1="37.16" y1="-15.86" x2="37.16" y2="54.41" gradientUnits="userSpaceOnUse">
      <stop offset="0" stop-color="#3c77ae"/>
      <stop offset="1" stop-color="#002e6e"/>
    </linearGradient>
    <linearGradient id="linear-gradient-2" x1="38.11" y1="65.45" x2="114.15" y2="65.45" gradientUnits="userSpaceOnUse">
      <stop offset="0" stop-color="#ed1c24"/>
      <stop offset=".75" stop-color="#faa61a"/>
      <stop offset="1" stop-color="#fd0"/>
    </linearGradient>
    <radialGradient id="radial-gradient" cx="35.3" cy="18.58" fx="35.3" fy="18.58" r="72.35" gradientUnits="userSpaceOnUse">
      <stop offset="0" stop-color="#009bdf"/>
      <stop offset="1" stop-color="#1b1464"/>
    </radialGradient>
    <radialGradient id="radial-gradient-2" cx="35.3" cy="18.62" fx="35.3" fy="18.62" r="72.33" xlink:href="#radial-gradient"/>
    <radialGradient id="radial-gradient-3" cx="35.3" cy="18.58" fx="35.3" fy="18.58" r="72.35" xlink:href="#radial-gradient"/>
    <radialGradient id="radial-gradient-4" cx="35.59" cy="18.58" fx="35.59" fy="18.58" r="72.59" xlink:href="#radial-gradient"/>
  </defs>
  <g id="Layer_1-2" data-name="Layer 1">
    <g>
      <g>
        <path class="cls-1" d="m58.59,3.21c-4.99-2.07-10.46-3.21-16.2-3.21-11.62,0-22.13,4.69-29.79,12.26-1.38,1.37-2.69,2.82-3.88,4.37,3.84,1.12,8.2,3.91,11.06,10.47,5.99,13.73-1.01,42.96-1.01,42.96,0,0,19.33-43.27,33.05-55.83,5.49-5.03,9.72-6.33,13.76-7.31-2.52-1.79-4.87-2.83-6.99-3.71Z"/>
        <path class="cls-4" d="m37.07,44.5s12.49,33.91,32.96,40.52c23.67,7.64,42.15-18.6,42.15-18.6,0,0-12.64,12.75-34.61,5.22-21.91-7.52-40.5-27.13-40.5-27.13Z"/>
        <g>
          <path class="cls-6" d="m36.32,46.21c-7.16,9.41-13.83,20.81-18.95,30.4,7.01,5.14,15.66,8.18,25.02,8.18,4.84,0,9.49-.82,13.82-2.32-1.66-1.83-3.37-3.92-5.09-6.32-7.88-11.01-12.62-23.88-14.81-29.94Z"/>
          <path class="cls-5" d="m81.67,26.42c-13.6-6.63-25.47-1.5-37.33,10.43-2.1,2.11-4.18,4.5-6.24,7.07,3.58,3.29,13.55,11.94,25.19,17.62,4.71,2.3,9.24,4.12,13.61,5.45,4.95-6.94,7.88-15.42,7.88-24.6,0-5.79-1.02-10.95-3.12-15.98Z"/>
          <path class="cls-7" d="m13.13,31.89c-2.92-2.92-6.74-4.09-10.41-4.42-1.75,4.64-2.71,9.67-2.71,14.93,0,13,5.86,24.63,15.07,32.41,5.17-19.44,5.02-35.95-1.95-42.92Z"/>
          <path class="cls-8" d="m20.34,21.19c7.06,13.04,1.74,37.74,1.74,37.74,0,0,13.88-28.14,20.52-38.44,4.86-7.53,10.06-14.01,16.57-17.04-4.99-2.07-11.04-3.46-16.78-3.46-11.62,0-22.13,4.69-29.79,12.26,2.74,1.88,5.44,4.7,7.73,8.93Z"/>
        </g>
      </g>
      <g>
        <path class="cls-3" d="m114.25,67.61h1.28v3.92l3.99-3.92h1.79l-4.54,4.48,4.57,5.17h-1.63l-4.17-4.71v4.71h-1.28v-9.65Z"/>
        <path class="cls-3" d="m121.89,72.38c0-1.39.51-2.59,1.53-3.58,1.02-.99,2.25-1.49,3.69-1.49s2.61.5,3.62,1.5c1.01,1,1.52,2.19,1.52,3.57,0,1.46-.5,2.69-1.5,3.7-1,1.01-2.23,1.51-3.69,1.51s-2.66-.51-3.67-1.52c-1.01-1.01-1.51-2.24-1.51-3.69Zm9,.06c0-1.07-.37-1.96-1.12-2.69-.75-.73-1.67-1.09-2.76-1.09s-1.93.37-2.67,1.11c-.74.74-1.11,1.63-1.11,2.67s.38,1.95,1.14,2.68c.76.73,1.69,1.09,2.79,1.09,1.01,0,1.89-.37,2.62-1.12.74-.74,1.1-1.63,1.1-2.65Z"/>
        <path class="cls-3" d="m134.13,67.61h2.04c1.01,0,1.84.26,2.47.78.64.52.96,1.18.96,1.99,0,.65-.21,1.22-.62,1.71-.41.49-1.05.84-1.93,1.04l2.73,4.13h-1.47l-2.61-3.97h-.29v3.97h-1.28v-9.65Zm1.28,1.17v3.36c1.89.04,2.84-.52,2.84-1.69,0-.41-.11-.74-.33-1-.22-.26-.52-.44-.89-.53-.37-.09-.91-.14-1.62-.14Z"/>
        <path class="cls-3" d="m141.38,67.61h5.21v1.32h-3.94v2.41h3.94v1.3h-3.94v3.32h3.94v1.3h-5.21v-9.65Z"/>
        <path class="cls-3" d="m151.61,67.24l4.44,10.03h-1.34l-1.09-2.47h-3.99l-1.08,2.47h-1.34l4.4-10.03Zm0,3.01l-1.5,3.44h3.02l-1.52-3.44Z"/>
        <path class="cls-3" d="m164.9,67.24l4.44,10.03h-1.35l-1.09-2.47h-3.99l-1.08,2.47h-1.33l4.4-10.03Zm0,3.01l-1.5,3.44h3.02l-1.52-3.44Z"/>
        <path class="cls-3" d="m170.54,67.61h2.28c1.8,0,3.15.49,4.03,1.47.88.98,1.32,2.1,1.32,3.36s-.46,2.39-1.37,3.37c-.91.98-2.23,1.46-3.97,1.46h-2.29v-9.65Zm1.28,1.29v7.06h.07c.95,0,1.67-.04,2.15-.13.48-.09.94-.28,1.37-.58.43-.3.78-.69,1.03-1.19.26-.49.38-1.03.38-1.63,0-.74-.2-1.41-.61-2.01-.41-.6-.9-1.01-1.46-1.21-.57-.21-1.33-.31-2.29-.31h-.65Z"/>
        <path class="cls-3" d="m178.56,67.62h1.36l2.95,6.84,2.97-6.84h1.37l-4.36,9.96-4.29-9.96Z"/>
        <path class="cls-3" d="m190.92,67.24l4.44,10.03h-1.35l-1.09-2.47h-3.99l-1.08,2.47h-1.33l4.4-10.03Zm0,3.01l-1.5,3.44h3.02l-1.52-3.44Z"/>
        <path class="cls-3" d="m196.46,67.22l6.95,7.34v-6.95h1.28v10.1l-6.95-7.3v6.86h-1.29v-10.04Z"/>
        <path class="cls-3" d="m214.22,67.94v1.49c-1.01-.51-1.95-.76-2.8-.76-1.09,0-2.01.36-2.76,1.08-.75.72-1.12,1.61-1.12,2.67s.38,1.97,1.15,2.69c.76.72,1.72,1.08,2.87,1.08.84,0,1.72-.27,2.66-.81v1.51c-.85.46-1.77.7-2.77.7-1.46,0-2.7-.51-3.73-1.52-1.03-1.01-1.55-2.23-1.55-3.66s.51-2.6,1.52-3.6c1.01-1,2.24-1.5,3.67-1.5.92,0,1.87.21,2.86.64Z"/>
        <path class="cls-3" d="m215.64,67.61h5.21v1.32h-3.94v2.41h3.94v1.3h-3.94v3.32h3.94v1.3h-5.21v-9.65Z"/>
        <path class="cls-3" d="m222.37,67.61h2.28c1.8,0,3.15.49,4.03,1.47.88.98,1.32,2.1,1.32,3.36s-.46,2.39-1.37,3.37c-.91.98-2.23,1.46-3.97,1.46h-2.29v-9.65Zm1.28,1.29v7.06h.07c.96,0,1.67-.04,2.15-.13.48-.09.94-.28,1.37-.58.43-.3.78-.69,1.03-1.19.26-.49.38-1.03.38-1.63,0-.74-.2-1.41-.61-2.01-.41-.6-.89-1.01-1.46-1.21-.57-.21-1.33-.31-2.29-.31h-.65Z"/>
        <path class="cls-3" d="m235.85,67.61h2.04c1.01,0,1.84.26,2.47.78.64.52.96,1.18.96,1.99,0,.65-.21,1.22-.62,1.71-.41.49-1.05.84-1.93,1.04l2.73,4.13h-1.47l-2.61-3.97h-.29v3.97h-1.28v-9.65Zm1.28,1.17v3.36c1.89.04,2.84-.52,2.84-1.69,0-.41-.11-.74-.33-1-.22-.26-.52-.44-.89-.53-.37-.09-.91-.14-1.62-.14Z"/>
        <path class="cls-3" d="m243.11,67.61h5.21v1.32h-3.94v2.41h3.94v1.3h-3.94v3.32h3.94v1.3h-5.21v-9.65Z"/>
        <path class="cls-3" d="m255.57,68.68l-1.04.86c-.28-.29-.52-.51-.75-.66-.22-.14-.54-.22-.97-.22-.46,0-.84.11-1.12.32-.29.21-.43.49-.43.83,0,.29.12.55.37.78.25.22.68.47,1.28.74.61.27,1.07.51,1.41.74.34.23.61.48.83.76.21.28.38.57.48.88.11.31.16.63.16.98,0,.8-.29,1.49-.85,2.05-.57.56-1.26.85-2.06.85s-1.48-.22-2.08-.66c-.6-.44-1.07-1.11-1.39-1.99l1.28-.37c.47,1.09,1.18,1.63,2.15,1.63.47,0,.86-.14,1.17-.43.31-.29.46-.65.46-1.09,0-.26-.08-.53-.24-.79-.16-.26-.37-.48-.61-.65-.24-.17-.62-.37-1.15-.59-.53-.22-.93-.42-1.21-.61-.29-.18-.53-.4-.74-.66-.21-.25-.36-.51-.46-.76-.1-.25-.14-.52-.14-.81,0-.69.27-1.28.81-1.77.54-.49,1.2-.73,1.97-.73.51,0,1.03.11,1.56.34.53.23.96.57,1.31,1.04Z"/>
        <path class="cls-3" d="m257.28,67.61h5.21v1.32h-3.94v2.41h3.94v1.3h-3.94v3.32h3.94v1.3h-5.21v-9.65Z"/>
        <path class="cls-3" d="m267.51,67.24l4.44,10.03h-1.34l-1.09-2.47h-3.99l-1.08,2.47h-1.33l4.4-10.03Zm0,3.01l-1.5,3.44h3.02l-1.52-3.44Z"/>
        <path class="cls-3" d="m273.32,67.61h2.04c1.01,0,1.84.26,2.47.78.64.52.96,1.18.96,1.99,0,.65-.21,1.22-.62,1.71-.41.49-1.05.84-1.93,1.04l2.73,4.13h-1.47l-2.61-3.97h-.29v3.97h-1.29v-9.65Zm1.29,1.17v3.36c1.89.04,2.84-.52,2.84-1.69,0-.41-.11-.74-.33-1-.22-.26-.52-.44-.88-.53-.37-.09-.91-.14-1.62-.14Z"/>
        <path class="cls-3" d="m288.28,67.94v1.49c-1.01-.51-1.95-.76-2.8-.76-1.09,0-2.01.36-2.76,1.08-.75.72-1.12,1.61-1.12,2.67s.38,1.97,1.15,2.69c.76.72,1.72,1.08,2.87,1.08.84,0,1.72-.27,2.66-.81v1.51c-.85.46-1.77.7-2.77.7-1.46,0-2.7-.51-3.73-1.52-1.03-1.01-1.55-2.23-1.55-3.66s.51-2.6,1.52-3.6c1.02-1,2.24-1.5,3.67-1.5.92,0,1.87.21,2.86.64Z"/>
        <path class="cls-3" d="m289.85,67.61h1.29v3.71h4.49v-3.71h1.27v9.65h-1.27v-4.64h-4.49v4.64h-1.29v-9.65Z"/>
        <path class="cls-3" d="m303.02,67.22l6.95,7.34v-6.95h1.28v10.1l-6.95-7.3v6.86h-1.28v-10.04Z"/>
        <path class="cls-3" d="m313.07,67.61h5.21v1.32h-3.94v2.41h3.94v1.3h-3.94v3.32h3.94v1.3h-5.21v-9.65Z"/>
        <path class="cls-3" d="m319.22,67.61h5.75v1.32h-2.24v8.34h-1.27v-8.34h-2.24v-1.32Z"/>
        <path class="cls-3" d="m332.97,67.24l3.03,7.13,2.84-6.74h1.33l-4.16,9.94-3.02-7.14-3.03,7.14-4.17-9.94h1.33l2.86,6.82,3.01-7.2Z"/>
        <path class="cls-3" d="m340.83,72.38c0-1.39.51-2.59,1.54-3.58,1.02-.99,2.25-1.49,3.69-1.49s2.61.5,3.62,1.5c1.01,1,1.52,2.19,1.52,3.57,0,1.46-.5,2.69-1.5,3.7-1,1.01-2.23,1.51-3.68,1.51s-2.66-.51-3.67-1.52c-1.01-1.01-1.51-2.24-1.51-3.69Zm9,.06c0-1.07-.37-1.96-1.12-2.69-.75-.73-1.67-1.09-2.76-1.09s-1.93.37-2.67,1.11c-.74.74-1.11,1.63-1.11,2.67s.38,1.95,1.14,2.68c.76.73,1.69,1.09,2.79,1.09,1.01,0,1.89-.37,2.62-1.12.74-.74,1.1-1.63,1.1-2.65Z"/>
        <path class="cls-3" d="m353.06,67.61h2.04c1.01,0,1.84.26,2.47.78.64.52.96,1.18.96,1.99,0,.65-.21,1.22-.62,1.71-.41.49-1.06.84-1.93,1.04l2.73,4.13h-1.47l-2.61-3.97h-.29v3.97h-1.28v-9.65Zm1.28,1.17v3.36c1.89.04,2.84-.52,2.84-1.69,0-.41-.11-.74-.33-1-.22-.26-.52-.44-.89-.53-.37-.09-.91-.14-1.62-.14Z"/>
        <path class="cls-3" d="m360.02,67.61h1.29v3.92l3.99-3.92h1.79l-4.54,4.48,4.57,5.17h-1.63l-4.17-4.71v4.71h-1.29v-9.65Z"/>
      </g>
      <g>
        <path class="cls-2" d="m161.96,60.58h-17.18l-17.25-22.15v22.15h-13.29V9.5h13.29v21.07l16.2-21.07h16.35l-20.25,24.17,22.12,26.91Z"/>
        <path class="cls-2" d="m218.66,35.21c0,6.94-2.31,13.02-6.92,18.26-5.27,5.96-12.39,8.94-21.37,8.94s-16.07-2.98-21.33-8.94c-4.62-5.24-6.92-11.33-6.92-18.26,0-3.17.62-6.42,1.87-9.75,1.25-3.33,2.92-6.18,5.01-8.55,5.26-5.96,12.39-8.94,21.37-8.94s16.1,2.98,21.37,8.94c4.62,5.24,6.92,11.34,6.92,18.3Zm-13.77,0c0-3.6-1.15-6.72-3.45-9.34-2.95-3.35-6.64-5.03-11.07-5.03-3.05,0-5.82.86-8.29,2.57-2.48,1.71-4.24,4-5.29,6.85-.6,1.63-.9,3.28-.9,4.95,0,3.45,1.15,6.54,3.45,9.27,2.85,3.38,6.53,5.07,11.03,5.07s8.19-1.68,11.07-5.03c2.3-2.68,3.45-5.78,3.45-9.31Z"/>
        <path class="cls-2" d="m268.16,60.58h-16.5l-12.69-19.61v19.61h-13.29V9.5h20.66c6.04,0,10.5,1.81,13.4,5.43,2.35,2.92,3.52,6.35,3.52,10.29,0,4.52-1.35,8.12-4.04,10.81-1.72,1.72-4.09,2.92-7.11,3.59l16.05,20.96Zm-18.67-34.63c0-1.82-.66-3.35-1.99-4.59-1.25-1.17-3.27-1.75-6.05-1.75h-2.48v12.72h2.48c2.8,0,4.82-.58,6.05-1.75,1.33-1.27,1.99-2.81,1.99-4.63Z"/>
        <path class="cls-2" d="m311.16,60.58h-37.43V9.5h37.43v11.08h-24.14v8.72h24.14v11.08h-24.14v9.13h24.14v11.08Z"/>
        <path class="cls-2" d="m367.11,60.58h-12.18l-22.4-31.29v31.29h-12.18V9.5h12.18l22.4,31.25V9.5h12.18v51.08Z"/>
      </g>
    </g>
  </g>
</svg>