<?xml version="1.0" encoding="UTF-8"?>
<svg id="Layer_2" data-name="Layer 2" xmlns="http://www.w3.org/2000/svg" xmlns:xlink="http://www.w3.org/1999/xlink" viewBox="0 0 436.47 139.58">
  <defs>
    <style>
      .cls-1 {
        fill: url(#linear-gradient);
      }

      .cls-1, .cls-2, .cls-3, .cls-4, .cls-5 {
        stroke-width: 0px;
      }

      .cls-6 {
        clip-path: url(#clippath-2);
      }

      .cls-2 {
        fill: none;
      }

      .cls-7 {
        clip-path: url(#clippath-1);
      }

      .cls-3 {
        fill: url(#linear-gradient-2);
      }

      .cls-4 {
        fill: url(#linear-gradient-3);
      }

      .cls-5 {
        fill: #231f20;
      }

      .cls-8 {
        clip-path: url(#clippath);
      }
    </style>
    <clipPath id="clippath">
      <path class="cls-2" d="m191.1,131.19h.39c-.21-.09-.4-.19-.59-.27.13.17.21.27.21.27m40.01-90.33c-19.64,12.21-39.02,28.99-47.95,54.05-7.42,20.72-1.51,31.09-1.51,31.09,0,0,2.8,1.93,9.25,4.93-1.58-2.2-11.41-17.44.21-38.98,12.58-23.31,28.7-40.9,56.44-51.84,5.94-1.64,17.03-3.51,24.25-.92,7.22,2.61,8.14,4.82,8.14,4.82,0,0-3.47-9.23-7.02-11.13-1.35-.7-4.99-1.49-10.08-1.49-8.04,0-19.72,2-31.71,9.47"/>
    </clipPath>
    <linearGradient id="linear-gradient" x1="-105.48" y1="484.11" x2="-97.37" y2="484.11" gradientTransform="translate(1486.39 6079.57) scale(12.39 -12.39)" gradientUnits="userSpaceOnUse">
      <stop offset="0" stop-color="#3c8447"/>
      <stop offset=".17" stop-color="#3c8447"/>
      <stop offset=".81" stop-color="#86c441"/>
      <stop offset="1" stop-color="#86c441"/>
    </linearGradient>
    <clipPath id="clippath-1">
      <path class="cls-2" d="m211.08,33.45c-20.34,14.97-38.87,39.79-44.96,59.98-3.33,12.04-2.8,14.07-2.8,14.07l5.96,7.19s-2.98-19.79,17.75-47.74c20.72-27.95,40.53-36.63,48.5-39.97,7.95-3.34,16.27-5.94,27.2-5.58,0,0-5.91-6.09-7.79-6.09s-23.5,3.17-43.86,18.13"/>
    </clipPath>
    <linearGradient id="linear-gradient-2" x1="-106.88" y1="485.54" x2="-98.77" y2="485.54" gradientTransform="translate(1473.19 6015.75) scale(12.26 -12.26)" gradientUnits="userSpaceOnUse">
      <stop offset="0" stop-color="#3173b0"/>
      <stop offset=".17" stop-color="#3173b0"/>
      <stop offset=".81" stop-color="#14a7e0"/>
      <stop offset="1" stop-color="#14a7e0"/>
    </linearGradient>
    <clipPath id="clippath-2">
      <path class="cls-2" d="m231.84,6.25s-17.36,2.12-41.84,24.62c-30.62,28.16-35.54,52.01-35.54,54.23s3.33,14.64,4.44,13.86c1.12-.71-2.2-16.08,16.3-41.63,18.51-25.55,44.97-45.52,71.06-47.01,0,0-7.98-4.1-13.69-4.1-.26,0-.5,0-.73.02"/>
    </clipPath>
    <linearGradient id="linear-gradient-3" x1="-109.38" y1="488.75" x2="-101.26" y2="488.75" gradientTransform="translate(1392.2 5583.86) scale(11.32 -11.32)" gradientUnits="userSpaceOnUse">
      <stop offset="0" stop-color="#9d5f37"/>
      <stop offset=".1" stop-color="#9d5f37"/>
      <stop offset=".84" stop-color="#f68821"/>
      <stop offset="1" stop-color="#f68821"/>
    </linearGradient>
  </defs>
  <g id="Layer_1-2" data-name="Layer 1">
    <rect class="cls-5" y="34.58" width="11.77" height="69.31"/>
    <polygon class="cls-5" points="34.14 34.74 11.58 67.17 34.99 103.89 49.85 103.89 24.4 66.83 48.48 34.74 34.14 34.74"/>
    <path class="cls-5" d="m87.09,84.26c-4.75-7.68-8.91-10.76-8.91-10.76,0,0,6.32.17,10.77-3.42,4.42-3.59,6.66-10.08,6.66-15.38s-1.87-10.57-5.98-14.85c-4.12-4.28-14.16-5.28-16.91-5.28h-21.16v69.31h11.6l.17-29.69c1.86,0,3.57.67,8.34,6.81,4.79,6.13,14.03,22.88,14.03,22.88h13.65s-7.52-11.96-12.27-19.63m-23.75-18.27v-21.67s5.63-.19,7.49-.19,12.82.33,12.82,10.57-8.02,11.29-11.11,11.29h-9.21Z"/>
    <rect class="cls-5" x="102.6" y="34.58" width="11.29" height="69.5"/>
    <rect class="cls-5" x="110.13" y="63.06" width="25.1" height="9.76"/>
    <polygon class="cls-5" points="113.03 94.69 144.97 94.69 149.39 104.07 110.48 104.07 113.03 94.69"/>
    <polygon class="cls-5" points="102.61 34.58 138.28 34.58 145.65 43.96 106.19 43.96 102.61 34.58"/>
    <path class="cls-5" d="m145.65,43.96S157.6,6.22,204.23.07c0,0-25.64-1.71-45.27,11.95-19.63,13.66-22.27,25.68-22.27,25.68l8.96,6.26Z"/>
    <path class="cls-5" d="m195.36,15.52s-16.66,7.01-24.61,19.06c-7.96,12.01-10.92,21.08-11.11,26.82.55,1.28,1.68,2.02,1.85,2.95.2.94.92,4.45.92,6.85s2.97,3.15,3.91,2.02c.93-1.1,3.3-3.13,3.71-1.64.36,1.47,2.19,3.88,2.76,6.29.57,2.39,3.34,8.51,4.09,8.87.73.38.92,1.7.92,2.96s1.47-.17,2.39-.92c.93-.75,2.06-.75,1.86-1.66-.2-.93-.55-2.03-1.3-3.52-.74-1.47-1.85-4.82-1.85-4.82,0,0-.2-.92,1.85-.92s5.74.36,7.78-.55c2.04-.93,4.99-3.32,5.36-6.48.36-3.14-1.3-4.24.21-5.36,1.47-1.12,2.01-2.59.35-2.23-1.65.38-1.65,1.12-1.86-.91-.18-2.03,2.04-2.78,2.59-2.03.57.73,1.1,1.1,1.68.93.54-.2,1.28.17,1.28,1.1s-.74,1.29-.18,1.29,1.48,1.1.75,1.49c-.75.36-.93,2.23.19,2.23s2.4-.93,2.23-2.62c-.2-1.66-1.88-1.48-1.5-2.57.36-1.12,2.77-3.33,3.69-3.7.93-.37,2.01.92,3.71-1.5,1.67-2.4,3.51-4.06,3.51-6.27s.19-3.34-1.1-3.16c-1.31.18-2.03.36-2.03-.73s2.39-4.44,3.68-4.44,3.72.75,5.39-.37c1.65-1.11,1.65-2.96,3.33-2.96s1.28,1.3,1.1,2.23c-.2.91-1.5,1.1-1.32,2.96.21,1.85.4,3.87,1.68,3.13,1.29-.74,1.68-1.28,1.68-3.69s-.95-2.78.2-3.53c1.09-.74,2.03-.37,3.11-2.03,1.12-1.65,3.72-3.5,3.72-5.19s-2.96-2.02-6.1-2.02-11.28.19-15.37.19-8.7-1.12-7.58-1.85c1.11-.75,2.03-1.5,3.12-1.5s0-1.29-2.41-1.12c-2.39.2-7.4-.36-8.5.39-1.09.73-1.84,2.23-2.77,1.29-.93-.93.53-2.79.53-4.63s.59-2.01,2.43-3.71q1.84-1.66,2.23-2.77c.35-1.11-.2-1.65-.2-1.65"/>
    <path class="cls-5" d="m226.65,12.73s1.09,1.84,2.41,2.58c1.3.75-.93,2.61-2.03,1.67-1.13-.92-2.06-.19-3.16-.19s-5.37,1.69-5.37,0,4.06-5.72,7.96-4.44l.19.37Z"/>
    <path class="cls-5" d="m229.79,13.09s9.99,2.96,15.02,5.55c4.96,2.61,13.3,10.57,17.37,15.37,4.04,4.82,10.35,17.77,10.73,25.36,0,0-3.13-2.42-6.82-7.95-3.72-5.55-9.27-7.97-12.78-8.33-3.54-.4-2.63.17-3.89.36-1.3.19-2.6.19-3.92.19s-1.1,1.84-.15,3.69c.91,1.86.36,3.72,0,6.12-.36,2.4-.18,2.58-1.32.73-1.1-1.84-.75-4.25-2.95-5.37-2.21-1.11-3.52-2.22-2.39-3.33,1.08-1.12,1.83-1.84,1.08-2.78-.72-.9-.9-1.66-2.75-2.76-1.89-1.11-4.45-3.88-1.49-4.26,2.96-.38,4.98-2.42,5.71-2.95.75-.58-.73-1.48,0-2.4.75-.93,1.3-3.9,1.12-4.83-.18-.91-1.12-4.44-3.49-6.65-2.44-2.23-10.02-5.37-10.02-5.37l.94-.37Z"/>
    <path class="cls-5" d="m221.09,95.64c-1.1.19-1.86,1.68-1.86,4.1s1.12,3.12-.92,2.95c-2.04-.17-5.72-1.66-7.01-2.77-1.32-1.11.33-1.3.73-2.6.36-1.28-1.66-.73-2.96-.73s-4.62-.76-6.1-.55c-1.5.16-.93,2.58-2.97,1.46-2.04-1.09-2.78-2.22-4.64-1.09-1.83,1.09-2.77,3.34-4.45,3.34s-6.1.36-6.1,1.28,2.42,6.48,5.2,8.3c2.79,1.87,12.76,5.75,19.62,7.42,6.86,1.66,13.68,2.41,19.63,1.31,5.89-1.12,9.44-2.27,8.14-5.02-1.3-2.77-8.71-5.89-10.02-9.05-1.3-3.14-1.66-4.07-3.13-4.25-1.48-.22-3.15-4.1-3.15-4.1"/>
    <g class="cls-8">
      <rect class="cls-1" x="175.73" y="31.38" width="104.19" height="99.81"/>
    </g>
    <g class="cls-7">
      <rect class="cls-3" x="162.79" y="15.32" width="99.94" height="99.38"/>
    </g>
    <g class="cls-6">
      <rect class="cls-4" x="154.46" y="6.22" width="91.79" height="93.52"/>
    </g>
    <path class="cls-5" d="m279.76,35.1s14.32,18.79,7.98,49.56c-6.34,30.8-32.43,45.6-38.76,48.4-6.34,2.84-14.1,6.13-23.96,6.35,0,0,28.89,2.82,49.35-15.04,20.41-17.86,26.29-32.2,27.01-56.15l23.93,35.95h12.24V34.87h-10.11v51.93l-35.46-52.18-12.23.48Z"/>
    <polygon class="cls-5" points="382.19 34.87 380.56 44.03 355.39 44.03 355.39 63.52 376.55 63.52 376.55 72.9 355.65 72.9 355.65 94.76 382.9 94.76 382.9 104.4 343.89 104.4 343.89 35.44 382.19 34.87"/>
    <polygon class="cls-5" points="388.8 35.34 436.47 35.34 434.83 44.26 388.8 44.26 388.8 35.34"/>
    <polygon class="cls-5" points="406.16 43.1 406.16 104.18 417.68 104.18 417.68 42.6 406.16 43.1"/>
  </g>
</svg>