<?xml version="1.0" encoding="UTF-8"?>
<svg id="layer_1" enable-background="new 0 0 5669.3 4067.8" version="1.1" viewBox="0 0 5669.3 4067.8" xml:space="preserve" xmlns="http://www.w3.org/2000/svg">
<style type="text/css">
	.st0{fill-rule:evenodd;clip-rule:evenodd;fill:#CC0000;}
	.st1{fill-rule:evenodd;clip-rule:evenodd;fill:#336699;}
	.st2{fill-rule:evenodd;clip-rule:evenodd;}
	.st3{fill-rule:evenodd;clip-rule:evenodd;fill:#FFFFFF;}
	.st4{fill-rule:evenodd;clip-rule:evenodd;fill:#231815;}
</style>

<g id="g269" transform="translate(.022798 -1559)">
	<path id="path4" class="st0" d="m2140.3 4592.2s-902.4-274.2-956.5-1255.7c-55.4-1006 622.4-1705.6 1620.1-1774.3 936.7-64.5 1419.6 861.7 1277 1466-142.6 604.2-654.8 1044.1-1281 978.3-251.7-26.5-441.9-121.7-575.4-257.9-200.2-204.3-273.2-501.5-233.2-800.8 49.5-371 446.2-631.3 817.6-560.5 387.2 73.8 576.5 448.8 396.2 718.8-51.5 77.1-145.1 136.9-225.3 159.8-117.5 33.6-230.4 24.6-230.4 24.6-10.3-0.8-18.2-9.6-17.9-19.9l2.6-99.7c0.3-10.1 8.2-18.3 18.2-18.9 0 0 77.8-5 159.2-36.3 52.8-20.3 107.4-51.6 142-100.7 32.9-46.9 29.5-111-1.9-171-49.9-95.6-170.4-180.2-340-178.7-142 1.2-251.1 52.4-320.6 138.7-70 86.8-99.8 208.4-84.7 348.4 30.3 280.9 340.2 530.6 621.9 507.3 453.5-37.6 848.1-286.2 815.4-904.1-16.4-309.1-139.2-534.7-332.7-670.2-194.1-136-458.6-181.2-755.7-131-298.6 50.4-587.6 246.2-798.5 496-210.5 249.3-308.7 519.4-294.3 820.9 21.2 443.5 176.3 847.5 632.6 1220.1 0 0 10 7.7 6.1 21.5-1.8 6.3-10.9 37.6-10.9 37.6-0.8 2.8-2.2 5.3-4.1 7.5l-25.6 28.7c-5 5.5-12.9 7.8-20.2 5.5z"/>
	<g id="g258">
		<path id="path6" class="st1" d="m921.8 5346.3s68-280.8 589.7-354c521.8-73.3 797 291 1761.3 275.5 964.2-15.5 1649.3-274.6 1980.6-270.8 331.4 3.9 227.2 126 188.5 194.5s9.3 140.3-250.9 155.8c-260.2 15.4-953.5 273-1952.6 279.4s-1438.3-487.4-1849.5-461.3-467.1 180.9-467.1 180.9z"/>
		<path id="path8" class="st1" d="M0,4744.1c-0.6,17.9,10.7,38.5,27.2,41.1s142.8-175.4,376-188.7    c572-32.5,813.6,165.6,1216.1,175.8c402.5,10.3,579.4-94.4,617.3-129.6s66.3-142.5,40.1-165.7c-26.2-23.1-340.3,114.5-796.8,114.5    S861,4467,500.4,4467S0.7,4726.2,0,4744.1z"/>
		<path id="path10" class="st1" d="m3703.3 4562.2c4.4-21.1 166-156.3 515.7-156.3s398.5 150 817.7 119c419.2-30.9 483.8-130.4 576.4-114.4 92.5 16 45.5 69.2 34.7 93.9-10.9 24.7-36.3 69.4-63.6 88.3s-259.2 148.5-571.8 148.5-735.6-198.4-991.7-198.4-259.2 63-289.9 53.7c-30.8-9.2-31.9-13.1-27.5-34.3z"/>
	</g>
	<g id="g253">
		<path id="path12" class="st2" d="m2544.1 4497.1s42.2-23.6 79.6-52.4c21.2-16.3 41.8-33.3 47.6-48.8 21.4-57.2 90.5-107.1 147.9-111.2 43.3-3.1 80.7 13.6 129 49.6 9.1-28.1 25.7-58.3 51.1-90.7 56.9-72.5 160.1-158.4 322.9-259.3 271.2-167.9 643-167.6 643-167.6 8.6 0 16.7 3.8 22.1 10.4l17.1 20.8c6 7.3 8 17 5.4 26-2.5 9-9.4 16.3-18.3 19.3 0 0-354.3 120.4-495.7 240.8-132.1 112.5-97 268.7-64 355 34.5 90.1 162.3 216.7 394.2 308 7.9 3.1 13.9 9.5 16.7 17.5 2.7 8 1.8 16.7-2.6 24-39.3 65.2-87.8 126.6-131.3 181.8-5.9 7.5-15.3 11.6-24.8 10.8-9.6-0.8-18.1-6.3-22.8-14.6-19-34.2-65.1-73-120-112.4-87.8-63-198.4-125.3-271.3-167.1-115.7-66.3-198.6-98.7-335.2-82.8-131.2 45-245.7-45.4-271.7-75.2-2.4-2.8-6.8-4.6-11.8-6.7-8.3-3.6-18.2-6.7-28.3-9.3-32.8-8.5-67.9-12.4-67.9-12.4-12.4-1.4-22.5-10.6-25-22.8s3.3-24.6 14.1-30.7z"/>
		<path id="path14" class="st3" d="m3528.8 3950.2c-60.3 21.2-120.5 48.2-176.4 82.8-154.9 96-253.9 176.9-308 245.9-31.9 40.7-47.6 76.1-47.6 107.7 0 11.1-6.5 21.2-16.5 25.9-10.1 4.7-21.9 3.2-30.5-3.9-52.8-43.8-84.8-69.8-126.5-66.8-38.2 2.7-84.1 36.1-98.3 74.2-6.6 17.6-23.9 38.4-46.1 57.7-13.5 11.7-28.7 23.1-43.4 33.4 7 1.8 13.9 3.7 20.5 5.9 22.3 7.3 40.9 17.5 50.3 28.4 20.2 23.2 109.8 94.5 212.2 57.8 2-0.7 4.1-1.2 6.2-1.5 152.8-18.5 245 15.9 373.7 89.6 36.3 20.8 81.9 46.7 129.5 75.2l72.2-92.5c-64-57.2-103.9-113.8-121.8-160.4-39.1-102.1-75.9-286.1 80.3-419.1 27.2-23.2 62-46.4 100.6-68.8l-30.4-71.5z"/>
		<path id="path16" class="st4" d="m2826 4456.4c-4.8 15.1-20.9 23.5-35.9 18.7-15.1-4.7-23.5-20.8-18.7-35.9l6.6-20.9c4.8-15.1 20.9-23.5 36-18.7s23.5 20.8 18.7 35.9l-6.7 20.9z"/>
	</g>
</g>
</svg>
